<?xml version="1.0" encoding="utf-8"?>
<!-- Generator: Adobe Illustrator 23.0.2, SVG Export Plug-In . SVG Version: 6.00 Build 0)  -->
<svg version="1.1" id="Layer_1" xmlns="http://www.w3.org/2000/svg" xmlns:xlink="http://www.w3.org/1999/xlink" x="0px" y="0px"
	 viewBox="0 0 150 150" style="enable-background:new 0 0 150 150;" xml:space="preserve">
<style type="text/css">
	.st0{fill:#000108;}
	.st1{font-family:'TimesNewRomanPSMT';}
	.st2{font-size:120px;}
	.st3{fill:#0092F6;}
	.st4{font-family:'MyriadPro-Regular';}
	.st5{font-size:24px;}
</style>
<text transform="matrix(1 0 0 1 24.0967 103.2905)" class="st0 st1 st2">M</text>
<g>
	<path class="st3" d="M118.3,7.8V10c-2.8,0.5-4.9,1.4-6.4,2.7c-2.1,1.9-3.9,4.8-5.5,8.8L78.7,89.1h-2.2L46.7,20.6
		c-1.5-3.5-2.6-5.7-3.2-6.4c-1-1.2-2.2-2.2-3.6-2.8c-1.4-0.7-3.4-1.1-5.8-1.3V7.8h32.5V10c-3.7,0.4-6.1,1-7.1,1.9
		c-1.1,0.9-1.6,2.1-1.6,3.5c0,2,0.9,5,2.7,9.1l20.2,46.6l18.8-46c1.8-4.5,2.8-7.7,2.8-9.4c0-1.1-0.6-2.2-1.7-3.3
		c-1.1-1-3-1.8-5.7-2.2c-0.2,0-0.5-0.1-1-0.2V7.8H118.3z"/>
</g>
<text transform="matrix(1 0 0 1 24.7417 121.3223)" class="st4 st5">FOOTBALL</text>
<text transform="matrix(1 0 0 1 47.7417 141.2783)" class="st4 st5">CLUB</text>
</svg>
